<?xml version="1.0" encoding="UTF-8"?>
<svg xmlns="http://www.w3.org/2000/svg" xmlns:xlink="http://www.w3.org/1999/xlink" width="1000px" height="264px" viewBox="0 0 999 264" version="1.1">
<g id="surface1">
<path style=" stroke:none;fill-rule:nonzero;fill:rgb(100%,100%,100%);fill-opacity:1;" d="M 148.363281 32.015625 C 117.15625 38.617188 92.652344 61.875 86.265625 91.207031 C 84.589844 98.4375 83.960938 99.066406 77.574219 99.066406 C 70.347656 99.066406 60.292969 102.207031 52.441406 106.921875 C 35.6875 116.980469 26.574219 133.21875 26.472656 153.015625 C 26.472656 170.929688 34.535156 186.332031 48.566406 195.339844 C 58.617188 201.730469 72.441406 203.511719 81.027344 199.636719 C 91.710938 194.816406 141.34375 159.199219 159.042969 143.589844 C 166.058594 137.511719 168.046875 135.207031 167.105469 134.160156 C 166.476562 133.425781 161.765625 129.863281 156.425781 126.199219 L 146.894531 119.492188 L 185.011719 111.949219 C 205.957031 107.761719 223.652344 104.511719 224.28125 104.617188 C 224.910156 104.722656 219.882812 121.589844 212.65625 143.589844 L 199.882812 182.351562 L 186.6875 155.742188 L 180.824219 160.769531 C 165.535156 173.96875 136.421875 193.980469 117.679688 204.351562 C 112.652344 207.179688 108.671875 209.589844 108.882812 209.796875 C 109.09375 210.007812 138.414062 210.21875 174.015625 210.320312 C 231.820312 210.425781 239.570312 210.320312 245.644531 208.75 C 270.566406 202.253906 290.253906 181.722656 295.488281 156.683594 C 298.628906 141.914062 295.699219 124.101562 287.949219 110.066406 C 283.867188 102.625 270.460938 89.742188 262.710938 85.65625 C 256.117188 82.199219 242.398438 78.113281 237.265625 78.113281 C 235.066406 78.113281 234.125 77.273438 232.660156 74.132812 C 224.175781 56.320312 205.328125 40.710938 184.382812 34.113281 C 176.113281 31.492188 156.320312 30.339844 148.363281 32.015625 Z M 148.363281 32.015625 "/>
<path style="fill-rule:nonzero;fill:rgb(100%,100%,100%);fill-opacity:1;stroke-width:2;stroke-linecap:butt;stroke-linejoin:miter;stroke:rgb(100%,100%,100%);stroke-opacity:1;stroke-miterlimit:4;" d="M 8884.006962 5436.012132 C 8839.989507 5416.995797 8823.016675 5365.987275 8844.018224 5315.9855 C 8861.998235 5272.993668 8896.018504 5254.98408 8943.990069 5264.007518 C 8988.007523 5271.986921 9010.01625 5302.002901 9010.01625 5354.98763 C 9010.01625 5424.00574 8947.011606 5464.014617 8884.006962 5436.012132 Z M 8884.006962 5436.012132 " transform="matrix(0.104717,0,0,-0.104762,-48.611091,665.826837)"/>
<path style=" stroke:none;fill-rule:nonzero;fill:rgb(100%,100%,100%);fill-opacity:1;" d="M 392.246094 138.875 L 392.246094 181.828125 L 406.90625 181.828125 L 406.90625 95.921875 L 392.246094 95.921875 Z M 392.246094 138.875 "/>
<path style=" stroke:none;fill-rule:nonzero;fill:rgb(100%,100%,100%);fill-opacity:1;" d="M 594.351562 111.847656 C 594.351562 126.929688 594.246094 127.558594 592.464844 125.988281 C 586.496094 120.542969 572.464844 119.390625 563.355469 123.578125 C 557.070312 126.511719 551.101562 133.113281 548.902344 139.710938 C 547.960938 142.332031 547.230469 147.882812 547.230469 151.96875 C 547.230469 161.1875 549.324219 167.683594 554.246094 173.445312 C 559.691406 179.730469 566.8125 182.875 576.027344 182.875 C 583.25 182.875 591 180.464844 592.675781 177.742188 C 593.933594 175.75 595.398438 176.484375 595.398438 179.207031 C 595.398438 181.722656 595.609375 181.828125 602.730469 181.828125 L 610.058594 181.828125 L 610.058594 95.921875 L 594.351562 95.921875 Z M 589.742188 139.082031 C 597.808594 147.046875 596.234375 161.292969 586.707031 167.265625 C 584.089844 168.835938 582.097656 169.253906 577.804688 168.941406 C 570.894531 168.417969 567.335938 166.007812 564.089844 159.40625 C 561.679688 154.695312 561.574219 153.855469 562.726562 148.511719 C 564.714844 138.875 570.683594 134.371094 580.527344 135 C 585.242188 135.3125 586.707031 135.941406 589.742188 139.082031 Z M 589.742188 139.082031 "/>
<path style=" stroke:none;fill-rule:nonzero;fill:rgb(100%,100%,100%);fill-opacity:1;" d="M 788.078125 138.875 L 788.078125 181.828125 L 803.785156 181.828125 L 803.785156 162.96875 C 803.785156 142.015625 804.414062 139.1875 810.066406 136.253906 C 813.628906 134.371094 819.808594 134.160156 822.84375 135.835938 C 826.925781 138.035156 827.871094 142.855469 827.871094 162.96875 L 827.871094 181.828125 L 843.683594 181.828125 L 843.367188 158.464844 C 843.054688 135.941406 842.949219 135.101562 840.4375 130.492188 C 836.875 124.101562 830.90625 121.066406 821.796875 121.066406 C 814.988281 121.066406 810.488281 122.636719 806.195312 126.617188 L 803.785156 128.710938 L 803.785156 95.921875 L 788.078125 95.921875 Z M 788.078125 138.875 "/>
<path style=" stroke:none;fill-rule:nonzero;fill:rgb(100%,100%,100%);fill-opacity:1;" d="M 625.765625 114.253906 L 625.765625 122.113281 L 616.339844 122.113281 L 616.339844 135.730469 L 625.765625 135.730469 L 625.765625 150.082031 C 625.765625 167.160156 626.8125 171.558594 631.945312 176.695312 C 636.449219 181.199219 642.3125 183.082031 650.164062 182.664062 L 655.609375 182.351562 L 655.925781 175.332031 L 656.238281 168.3125 L 651.109375 168.941406 C 646.710938 169.464844 645.558594 169.152344 643.671875 167.265625 C 641.683594 165.273438 641.472656 163.914062 641.472656 150.398438 L 641.472656 135.730469 L 657.179688 135.730469 L 657.179688 122.113281 L 641.472656 122.113281 L 641.472656 106.398438 L 625.765625 106.398438 Z M 625.765625 114.253906 "/>
<path style=" stroke:none;fill-rule:nonzero;fill:rgb(100%,100%,100%);fill-opacity:1;" d="M 343.238281 123.789062 C 337.0625 126.828125 330.464844 134.160156 328.160156 140.65625 C 327.425781 142.855469 326.902344 148.199219 326.902344 152.492188 C 326.902344 158.988281 327.425781 161.398438 329.941406 166.53125 C 335.492188 177.53125 344.707031 182.875 358.109375 182.875 C 366.695312 182.875 372.980469 180.464844 378.425781 175.226562 C 381.777344 172.082031 385.546875 166.320312 384.707031 165.589844 C 384.5 165.484375 381.253906 164.332031 377.480469 163.285156 C 370.675781 161.1875 370.570312 161.1875 369.3125 163.179688 C 365.542969 169.152344 355.386719 171.035156 349.207031 166.847656 C 339.890625 160.664062 339.46875 144.113281 348.371094 137.722656 C 354.757812 133.21875 363.765625 134.265625 368.582031 140.027344 L 371.199219 143.167969 L 377.585938 141.703125 C 381.042969 140.863281 384.183594 139.921875 384.601562 139.609375 C 385.648438 138.558594 379.785156 129.65625 376.226562 126.929688 C 370.464844 122.53125 365.648438 121.066406 356.957031 121.066406 C 350.359375 121.167969 347.742188 121.695312 343.238281 123.789062 Z M 343.238281 123.789062 "/>
<path style=" stroke:none;fill-rule:nonzero;fill:rgb(100%,100%,100%);fill-opacity:1;" d="M 433.820312 122.53125 C 425.546875 125.570312 417.378906 134.265625 415.179688 142.4375 C 413.191406 149.664062 414.449219 161.921875 417.695312 167.472656 C 423.765625 177.742188 433.191406 182.875 446.070312 182.875 C 458.324219 182.875 469.109375 176.484375 474.660156 165.796875 C 475.601562 163.914062 476.542969 158.988281 476.859375 154.484375 C 477.695312 140.027344 472.355469 130.390625 460.105469 124.3125 C 454.554688 121.484375 452.5625 121.066406 445.757812 121.066406 C 441.359375 121.167969 436.019531 121.796875 433.820312 122.53125 Z M 452.984375 136.675781 C 459.894531 140.339844 463.453125 148.828125 461.359375 156.683594 C 460 161.609375 453.402344 167.789062 448.375 168.730469 C 437.800781 170.828125 427.433594 159.929688 429.421875 148.929688 C 431.621094 137.722656 443.347656 131.542969 452.984375 136.675781 Z M 452.984375 136.675781 "/>
<path style=" stroke:none;fill-rule:nonzero;fill:rgb(100%,100%,100%);fill-opacity:1;" d="M 680.21875 122.007812 C 667.023438 126.09375 658.332031 139.398438 659.484375 153.960938 C 660.425781 165.589844 665.558594 173.96875 674.878906 179.523438 C 681.058594 183.1875 694.042969 184.027344 702.210938 181.304688 C 708.074219 179.3125 718.546875 170.511719 717.707031 168.101562 C 717.5 167.371094 714.253906 165.902344 710.585938 164.960938 C 704.199219 163.074219 703.886719 163.074219 702.628906 164.960938 C 701.789062 166.007812 699.589844 167.683594 697.601562 168.625 C 690.0625 172.1875 681.371094 169.675781 677.078125 162.761719 C 672.992188 156.054688 672.574219 156.160156 696.972656 156.472656 L 718.964844 156.789062 L 718.964844 151.132812 C 718.964844 141.492188 716.347656 134.894531 710.273438 128.921875 C 706.921875 125.675781 703.152344 123.160156 700.535156 122.320312 C 695.820312 120.960938 684.40625 120.75 680.21875 122.007812 Z M 696.972656 135.207031 C 700.117188 136.882812 703.675781 142.226562 703.046875 144.425781 C 702.839844 145.371094 699.066406 145.578125 688.910156 145.160156 L 675.089844 144.636719 L 676.761719 141.074219 C 680.113281 134.265625 689.75 131.542969 696.972656 135.207031 Z M 696.972656 135.207031 "/>
<path style=" stroke:none;fill-rule:nonzero;fill:rgb(100%,100%,100%);fill-opacity:1;" d="M 742.734375 122.53125 C 722 129.96875 716.453125 160.769531 733.207031 175.542969 C 740.117188 181.511719 745.25 183.1875 755.71875 182.664062 C 763.574219 182.246094 765.5625 181.828125 769.855469 179.101562 C 774.359375 176.378906 781.792969 168.3125 781.792969 166.21875 C 781.792969 165.796875 778.445312 164.542969 774.464844 163.285156 C 767.132812 161.1875 767.03125 161.1875 765.980469 163.179688 C 764.308594 166.320312 758.652344 169.253906 754.042969 169.253906 C 748.914062 169.253906 743.78125 166.21875 740.953125 161.710938 C 738.441406 157.523438 738.128906 147.570312 740.429688 143.066406 C 745.25 133.742188 759.070312 131.960938 765.355469 140.027344 L 767.867188 143.167969 L 773.835938 141.597656 C 777.1875 140.761719 780.117188 139.816406 780.433594 139.503906 C 780.746094 139.1875 780.433594 137.511719 779.699219 135.730469 C 777.816406 131.332031 769.230469 123.789062 764.203125 122.320312 C 758.757812 120.644531 747.761719 120.75 742.734375 122.53125 Z M 742.734375 122.53125 "/>
<path style=" stroke:none;fill-rule:nonzero;fill:rgb(100%,100%,100%);fill-opacity:1;" d="M 918.449219 123.472656 C 907.246094 128.921875 900.753906 139.398438 900.753906 151.96875 C 900.753906 164.015625 906.09375 173.238281 916.878906 179.523438 C 921.171875 182.035156 922.640625 182.351562 932.0625 182.351562 C 941.59375 182.351562 942.953125 182.035156 947.351562 179.523438 C 953.113281 176.167969 959.183594 169.675781 961.488281 164.332031 C 962.640625 161.816406 963.269531 157.523438 963.375 152.492188 C 963.375 139.921875 958.242188 130.914062 947.246094 124.417969 C 943.371094 122.113281 941.175781 121.589844 933.109375 121.273438 C 924.839844 120.960938 923.058594 121.273438 918.449219 123.472656 Z M 940.753906 137.511719 C 946.199219 141.597656 947.769531 144.847656 947.769531 151.96875 C 947.769531 159.929688 945.78125 163.390625 938.765625 166.949219 C 922.847656 175.226562 907.980469 153.542969 920.335938 140.027344 C 925.464844 134.472656 935.101562 133.320312 940.753906 137.511719 Z M 940.753906 137.511719 "/>
<path style=" stroke:none;fill-rule:nonzero;fill:rgb(100%,100%,100%);fill-opacity:1;" d="M 484.609375 145.371094 C 484.921875 168.625 484.921875 168.730469 487.75 173.65625 C 491.519531 179.941406 497.277344 182.875 506.179688 182.875 C 513.613281 182.875 517.382812 181.617188 521.363281 177.847656 L 524.191406 175.121094 L 524.191406 181.828125 L 539.898438 181.828125 L 539.898438 122.113281 L 524.191406 122.113281 L 524.191406 140.863281 C 524.191406 158.570312 524.085938 159.722656 521.78125 163.074219 C 518.953125 167.371094 515.5 169.253906 510.472656 169.253906 C 505.238281 169.253906 501.675781 166.21875 500.210938 160.457031 C 499.582031 157.835938 499.058594 148.199219 499.058594 138.980469 L 499.058594 122.113281 L 484.292969 122.113281 Z M 484.609375 145.371094 "/>
<path style=" stroke:none;fill-rule:nonzero;fill:rgb(100%,100%,100%);fill-opacity:1;" d="M 878.132812 151.96875 L 878.132812 181.828125 L 893.839844 181.828125 L 893.839844 122.113281 L 878.132812 122.113281 Z M 878.132812 151.96875 "/>
<path style=" stroke:none;fill-rule:nonzero;fill:rgb(100%,100%,100%);fill-opacity:1;" d="M 853.945312 167.054688 C 850.070312 170.929688 849.964844 175.332031 853.628906 179.625 C 855.828125 182.246094 857.191406 182.875 860.332031 182.875 C 866.40625 182.875 870.28125 179.207031 870.28125 173.445312 C 870.28125 164.644531 860.332031 160.769531 853.945312 167.054688 Z M 853.945312 167.054688 "/>
</g>
</svg>
